{
  "accessors": [
    {
      "bufferView": 2,
      "componentType": 5126,
      "count": 1857,
      "max": [
        2.5352714061737061,
        -0.012201309204101562,
        2.5352714061737061
      ],
      "min": [
        -2.5352714061737061,
        -3.5824441909790039,
        -2.5352714061737061
      ],
      "type": "VEC3"
    },
    {
      "bufferView": 2,
      "byteOffset": 22284,
      "componentType": 5126,
      "count": 1857,
      "max": [
        1,
        1,
        1
      ],
      "min": [
        -1,
        -1,
        -1
      ],
      "type": "VEC3"
    },
    {
      "bufferView": 3,
      "componentType": 5126,
      "count": 1857,
      "max": [
        1,
        0.99998253583908081,
        1,
        1
      ],
      "min": [
        -0.99999910593032837,
        -0.9999883770942688,
        -1,
        -1
      ],
      "type": "VEC4"
    },
    {
      "bufferView": 1,
      "componentType": 5126,
      "count": 1857,
      "max": [
        0.6962580680847168,
        0.63677692413330078
      ],
      "min": [
        0.016246616840362549,
        0.0035262107849121094
      ],
      "type": "VEC2"
    },
    {
      "bufferView": 0,
      "componentType": 5125,
      "count": 6654,
      "max": [
        1856
      ],
      "min": [
        0
      ],
      "type": "SCALAR"
    },
    {
      "bufferView": 2,
      "byteOffset": 44568,
      "componentType": 5126,
      "count": 5274,
      "max": [
        2.6650116443634033,
        5.131342887878418,
        2.9476370811462402
      ],
      "min": [
        -2.6650116443634033,
        2.5913181304931641,
        -2.7451751232147217
      ],
      "type": "VEC3"
    },
    {
      "bufferView": 2,
      "byteOffset": 107856,
      "componentType": 5126,
      "count": 5274,
      "max": [
        1,
        1,
        1
      ],
      "min": [
        -1,
        -1,
        -1
      ],
      "type": "VEC3"
    },
    {
      "bufferView": 3,
      "byteOffset": 29712,
      "componentType": 5126,
      "count": 5274,
      "max": [
        1,
        0.99999922513961792,
        0.9999997615814209,
        1
      ],
      "min": [
        -1,
        -0.99998801946640015,
        -1,
        -1
      ],
      "type": "VEC4"
    },
    {
      "bufferView": 1,
      "byteOffset": 14856,
      "componentType": 5126,
      "count": 5274,
      "max": [
        0.98123657703399658,
        0.9987148642539978
      ],
      "min": [
        0.008058205246925354,
        0.0063479840755462646
      ],
      "type": "VEC2"
    },
    {
      "bufferView": 0,
      "byteOffset": 26616,
      "componentType": 5125,
      "count": 23472,
      "max": [
        5273
      ],
      "min": [
        0
      ],
      "type": "SCALAR"
    }
  ],
  "asset": {
    "extras": {
      "author": "Espen Lindahl (https://sketchfab.com/TheCoffeeCup)",
      "license": "CC-BY-4.0 (http://creativecommons.org/licenses/by/4.0/)",
      "source": "https://sketchfab.com/models/de8fc4e7a5684103ae0c26338895b413",
      "title": "Present"
    },
    "generator": "Sketchfab-3.53.2",
    "version": "2.0"
  },
  "bufferViews": [
    {
      "buffer": 0,
      "byteLength": 120504,
      "byteOffset": 0,
      "name": "floatBufferViews",
      "target": 34963
    },
    {
      "buffer": 0,
      "byteLength": 57048,
      "byteOffset": 120504,
      "byteStride": 8,
      "name": "floatBufferViews",
      "target": 34962
    },
    {
      "buffer": 0,
      "byteLength": 171144,
      "byteOffset": 177552,
      "byteStride": 12,
      "name": "floatBufferViews",
      "target": 34962
    },
    {
      "buffer": 0,
      "byteLength": 114096,
      "byteOffset": 348696,
      "byteStride": 16,
      "name": "floatBufferViews",
      "target": 34962
    }
  ],
  "buffers": [
    {
      "byteLength": 462792,
      "uri": "scene.bin"
    }
  ],
  "images": [
    {
      "uri": "textures/lambert1_normal.png"
    },
    {
      "uri": "textures/lambert1_metallicRoughness.png"
    },
    {
      "uri": "textures/lambert1_baseColor.png"
    }
  ],
  "materials": [
    {
      "doubleSided": true,
      "emissiveFactor": [
        0,
        0,
        0
      ],
      "name": "lambert1",
      "normalTexture": {
        "index": 0,
        "scale": 1,
        "texCoord": 0
      },
      "occlusionTexture": {
        "index": 1,
        "strength": 1,
        "texCoord": 0
      },
      "pbrMetallicRoughness": {
        "baseColorFactor": [
          1,
          1,
          1,
          1
        ],
        "baseColorTexture": {
          "index": 2,
          "texCoord": 0
        },
        "metallicFactor": 1,
        "metallicRoughnessTexture": {
          "index": 1,
          "texCoord": 0
        },
        "roughnessFactor": 1
      }
    }
  ],
  "meshes": [
    {
      "name": "polySurface13_lambert1_0",
      "primitives": [
        {
          "attributes": {
            "NORMAL": 1,
            "POSITION": 0,
            "TANGENT": 2,
            "TEXCOORD_0": 3
          },
          "indices": 4,
          "material": 0,
          "mode": 4
        }
      ]
    },
    {
      "name": "polySurface8_lambert1_0",
      "primitives": [
        {
          "attributes": {
            "NORMAL": 6,
            "POSITION": 5,
            "TANGENT": 7,
            "TEXCOORD_0": 8
          },
          "indices": 9,
          "material": 0,
          "mode": 4
        }
      ]
    }
  ],
  "nodes": [
    {
      "children": [
        1
      ],
      "name": "RootNode (gltf orientation matrix)",
      "rotation": [
        -0.70710678118654746,
        -0,
        -0,
        0.70710678118654757
      ]
    },
    {
      "children": [
        2
      ],
      "name": "RootNode (model correction matrix)"
    },
    {
      "children": [
        3
      ],
      "matrix": [
        1,
        0,
        0,
        0,
        0,
        0,
        1,
        0,
        0,
        -1,
        0,
        0,
        0,
        0,
        0,
        1
      ],
      "name": "Present.fbx"
    },
    {
      "children": [
        4,
        7
      ],
      "name": "RootNode"
    },
    {
      "children": [
        5
      ],
      "matrix": [
        1,
        0,
        0,
        0,
        0,
        1,
        0,
        0,
        0,
        0,
        1,
        0,
        0,
        3.5824441909790039,
        0,
        1
      ],
      "name": "polySurface3"
    },
    {
      "children": [
        6
      ],
      "name": "polySurface13"
    },
    {
      "mesh": 0,
      "name": "polySurface13_lambert1_0"
    },
    {
      "children": [
        8
      ],
      "name": "polySurface8"
    },
    {
      "mesh": 1,
      "name": "polySurface8_lambert1_0"
    }
  ],
  "samplers": [
    {
      "magFilter": 9729,
      "minFilter": 9987,
      "wrapS": 10497,
      "wrapT": 10497
    }
  ],
  "scene": 0,
  "scenes": [
    {
      "name": "OSG_Scene",
      "nodes": [
        0
      ]
    }
  ],
  "textures": [
    {
      "sampler": 0,
      "source": 0
    },
    {
      "sampler": 0,
      "source": 1
    },
    {
      "sampler": 0,
      "source": 2
    }
  ]
}

