{
  "accessors": [
    {
      "bufferView": 2,
      "componentType": 5126,
      "count": 2304,
      "max": [
        0.48413598537445068,
        -0.40207180380821228,
        0.49942520260810852
      ],
      "min": [
        -0.51470160484313965,
        -1.2319169044494629,
        -0.49944329261779785
      ],
      "type": "VEC3"
    },
    {
      "bufferView": 2,
      "byteOffset": 27648,
      "componentType": 5126,
      "count": 2304,
      "max": [
        0.99944138526916504,
        0.99933558702468872,
        0.99914246797561646
      ],
      "min": [
        -0.99944138526916504,
        -0.99933558702468872,
        -0.99914246797561646
      ],
      "type": "VEC3"
    },
    {
      "bufferView": 3,
      "componentType": 5126,
      "count": 2304,
      "max": [
        0.99996823072433472,
        0.026496803387999535,
        0.99999785423278809,
        1
      ],
      "min": [
        -0.99998253583908081,
        -0.02540912851691246,
        -1,
        -1
      ],
      "type": "VEC4"
    },
    {
      "bufferView": 1,
      "componentType": 5126,
      "count": 2304,
      "max": [
        0.984375,
        0.94444441795349121
      ],
      "min": [
        0,
        0
      ],
      "type": "VEC2"
    },
    {
      "bufferView": 0,
      "componentType": 5125,
      "count": 13098,
      "max": [
        2303
      ],
      "min": [
        0
      ],
      "type": "SCALAR"
    },
    {
      "bufferView": 2,
      "byteOffset": 55296,
      "componentType": 5126,
      "count": 2816,
      "max": [
        4.8108558654785156,
        0.31759876012802124,
        1.4542372226715088
      ],
      "min": [
        3.2765529155731201,
        -2.4671630859375,
        -1.6673461198806763
      ],
      "type": "VEC3"
    },
    {
      "bufferView": 2,
      "byteOffset": 89088,
      "componentType": 5126,
      "count": 2816,
      "max": [
        0.99999737739562988,
        0.99547559022903442,
        0.92824757099151611
      ],
      "min": [
        -0.99999737739562988,
        -0.99547559022903442,
        -0.92824757099151611
      ],
      "type": "VEC3"
    },
    {
      "bufferView": 3,
      "byteOffset": 36864,
      "componentType": 5126,
      "count": 2816,
      "max": [
        0.46715432405471802,
        0.88934934139251709,
        0.99982154369354248,
        1
      ],
      "min": [
        -0.46513211727142334,
        -0.88827311992645264,
        -1,
        -1
      ],
      "type": "VEC4"
    },
    {
      "bufferView": 1,
      "byteOffset": 18432,
      "componentType": 5126,
      "count": 2816,
      "max": [
        0.984375,
        0.95454537868499756
      ],
      "min": [
        0,
        0
      ],
      "type": "VEC2"
    },
    {
      "bufferView": 0,
      "byteOffset": 52392,
      "componentType": 5125,
      "count": 16137,
      "max": [
        2815
      ],
      "min": [
        0
      ],
      "type": "SCALAR"
    },
    {
      "bufferView": 2,
      "byteOffset": 122880,
      "componentType": 5126,
      "count": 1015,
      "max": [
        3.8333587646484375,
        -1.0419234037399292,
        0.17892536520957947
      ],
      "min": [
        0.23836992681026459,
        -2.6779921054840088,
        -0.36121752858161926
      ],
      "type": "VEC3"
    },
    {
      "bufferView": 2,
      "byteOffset": 135060,
      "componentType": 5126,
      "count": 1015,
      "max": [
        0.99987435340881348,
        0.99951422214508057,
        1
      ],
      "min": [
        -0.99987435340881348,
        -0.99951422214508057,
        -1
      ],
      "type": "VEC3"
    },
    {
      "bufferView": 3,
      "byteOffset": 81920,
      "componentType": 5126,
      "count": 1015,
      "max": [
        0,
        0.8868986964225769,
        0,
        1
      ],
      "min": [
        -0.46232384443283081,
        0,
        0,
        -1
      ],
      "type": "VEC4"
    },
    {
      "bufferView": 1,
      "byteOffset": 40960,
      "componentType": 5126,
      "count": 1015,
      "max": [
        1,
        0.90630000829696655
      ],
      "min": [
        -0.61650002002716064,
        -1.922799825668335
      ],
      "type": "VEC2"
    },
    {
      "bufferView": 0,
      "byteOffset": 116940,
      "componentType": 5125,
      "count": 2520,
      "max": [
        1014
      ],
      "min": [
        0
      ],
      "type": "SCALAR"
    },
    {
      "bufferView": 2,
      "byteOffset": 147240,
      "componentType": 5126,
      "count": 1064,
      "max": [
        3.6946868896484375,
        -1.1344424486160278,
        0.33019936084747314
      ],
      "min": [
        -0.4257366955280304,
        -2.616896390914917,
        -0.55238890647888184
      ],
      "type": "VEC3"
    },
    {
      "bufferView": 2,
      "byteOffset": 160008,
      "componentType": 5126,
      "count": 1064,
      "max": [
        0.99951207637786865,
        0.99967020750045776,
        1
      ],
      "min": [
        -0.99951207637786865,
        -0.99967020750045776,
        -1
      ],
      "type": "VEC3"
    },
    {
      "bufferView": 3,
      "byteOffset": 98160,
      "componentType": 5126,
      "count": 1064,
      "max": [
        0.99945813417434692,
        0.99967759847640991,
        0.501015305519104,
        1
      ],
      "min": [
        -0.99947720766067505,
        -0.65086692571640015,
        -0.99999332427978516,
        -1
      ],
      "type": "VEC4"
    },
    {
      "bufferView": 1,
      "byteOffset": 49080,
      "componentType": 5126,
      "count": 1064,
      "max": [
        1,
        0.16666701436042786
      ],
      "min": [
        -0.0017447287682443857,
        0
      ],
      "type": "VEC2"
    },
    {
      "bufferView": 0,
      "byteOffset": 127020,
      "componentType": 5125,
      "count": 2724,
      "max": [
        1063
      ],
      "min": [
        0
      ],
      "type": "SCALAR"
    },
    {
      "bufferView": 2,
      "byteOffset": 172776,
      "componentType": 5126,
      "count": 512,
      "max": [
        0.14064621925354004,
        -2.2373330593109131,
        0.0038488639984279871
      ],
      "min": [
        -0.1098472997546196,
        -2.3770971298217773,
        -0.24664455652236938
      ],
      "type": "VEC3"
    },
    {
      "bufferView": 2,
      "byteOffset": 178920,
      "componentType": 5126,
      "count": 512,
      "max": [
        0.99018114805221558,
        0.94817030429840088,
        0.99018114805221558
      ],
      "min": [
        -0.99018114805221558,
        -0.94817030429840088,
        -0.99018114805221558
      ],
      "type": "VEC3"
    },
    {
      "bufferView": 3,
      "byteOffset": 115184,
      "componentType": 5126,
      "count": 512,
      "max": [
        0.99999916553497314,
        0.025207895785570145,
        0.99997413158416748,
        1
      ],
      "min": [
        -0.99999916553497314,
        -0.029362725093960762,
        -0.99999916553497314,
        -1
      ],
      "type": "VEC4"
    },
    {
      "bufferView": 1,
      "byteOffset": 57592,
      "componentType": 5126,
      "count": 512,
      "max": [
        0.984375,
        0.75
      ],
      "min": [
        0,
        0
      ],
      "type": "VEC2"
    },
    {
      "bufferView": 0,
      "byteOffset": 137916,
      "componentType": 5125,
      "count": 2394,
      "max": [
        511
      ],
      "min": [
        0
      ],
      "type": "SCALAR"
    },
    {
      "bufferView": 2,
      "byteOffset": 185064,
      "componentType": 5126,
      "count": 3328,
      "max": [
        1.1323498487472534,
        -0.54031175374984741,
        1.0102837085723877
      ],
      "min": [
        -1.1235120296478271,
        -2.2388203144073486,
        -1.2455769777297974
      ],
      "type": "VEC3"
    },
    {
      "bufferView": 2,
      "byteOffset": 225000,
      "componentType": 5126,
      "count": 3328,
      "max": [
        0.99809849262237549,
        0.99934971332550049,
        0.99809849262237549
      ],
      "min": [
        -0.99809849262237549,
        -0.99934971332550049,
        -0.99809849262237549
      ],
      "type": "VEC3"
    },
    {
      "bufferView": 3,
      "byteOffset": 123376,
      "componentType": 5126,
      "count": 3328,
      "max": [
        1,
        0.025414247065782547,
        0.99999517202377319,
        1
      ],
      "min": [
        -1,
        -0.025338457897305489,
        -1,
        -1
      ],
      "type": "VEC4"
    },
    {
      "bufferView": 1,
      "byteOffset": 61688,
      "componentType": 5126,
      "count": 3328,
      "max": [
        0.984375,
        0.96153837442398071
      ],
      "min": [
        0,
        0
      ],
      "type": "VEC2"
    },
    {
      "bufferView": 0,
      "byteOffset": 147492,
      "componentType": 5125,
      "count": 19365,
      "max": [
        3327
      ],
      "min": [
        0
      ],
      "type": "SCALAR"
    }
  ],
  "asset": {
    "extras": {
      "author": "alban (https://sketchfab.com/alban)",
      "license": "CC-BY-4.0 (http://creativecommons.org/licenses/by/4.0/)",
      "source": "https://sketchfab.com/models/1a50b7ee150a45e583674cd319bb82eb",
      "title": "Pixar lamp"
    },
    "generator": "Sketchfab-3.47.8",
    "version": "2.0"
  },
  "bufferViews": [
    {
      "buffer": 0,
      "byteLength": 224952,
      "byteOffset": 0,
      "name": "floatBufferViews",
      "target": 34963
    },
    {
      "buffer": 0,
      "byteLength": 88312,
      "byteOffset": 224952,
      "byteStride": 8,
      "name": "floatBufferViews",
      "target": 34962
    },
    {
      "buffer": 0,
      "byteLength": 264936,
      "byteOffset": 313264,
      "byteStride": 12,
      "name": "floatBufferViews",
      "target": 34962
    },
    {
      "buffer": 0,
      "byteLength": 176624,
      "byteOffset": 578200,
      "byteStride": 16,
      "name": "floatBufferViews",
      "target": 34962
    }
  ],
  "buffers": [
    {
      "byteLength": 754824,
      "uri": "scene.bin"
    }
  ],
  "materials": [
    {
      "doubleSided": true,
      "emissiveFactor": [
        0,
        0,
        0
      ],
      "name": "BaseMaterial0",
      "pbrMetallicRoughness": {
        "baseColorFactor": [
          1,
          0.99495215950000004,
          0.99495215950000004,
          1
        ],
        "metallicFactor": 1,
        "roughnessFactor": 0.20000000000000001
      }
    },
    {
      "doubleSided": true,
      "emissiveFactor": [
        1,
        1,
        0.86822349929999998
      ],
      "name": "BaseMaterial1",
      "pbrMetallicRoughness": {
        "baseColorFactor": [
          0.96019842870000005,
          1,
          0,
          1
        ],
        "metallicFactor": 0.45000000000000001,
        "roughnessFactor": 0.35999999999999999
      }
    },
    {
      "doubleSided": true,
      "emissiveFactor": [
        0,
        0,
        0
      ],
      "name": "BaseMaterial2222",
      "pbrMetallicRoughness": {
        "baseColorFactor": [
          0.23599999999999999,
          0.23599999999999999,
          0.23599999999999999,
          1
        ],
        "metallicFactor": 0,
        "roughnessFactor": 0.20000000000000001
      }
    },
    {
      "doubleSided": true,
      "emissiveFactor": [
        0,
        0,
        0
      ],
      "name": "BaseMaterial3",
      "pbrMetallicRoughness": {
        "baseColorFactor": [
          1,
          1,
          1,
          1
        ],
        "metallicFactor": 1,
        "roughnessFactor": 0.20000000000000001
      }
    },
    {
      "doubleSided": true,
      "emissiveFactor": [
        0,
        0,
        0
      ],
      "name": "BaseMaterial4",
      "pbrMetallicRoughness": {
        "baseColorFactor": [
          1,
          1,
          1,
          1
        ],
        "metallicFactor": 1,
        "roughnessFactor": 0.20000000000000001
      }
    }
  ],
  "meshes": [
    {
      "primitives": [
        {
          "attributes": {
            "NORMAL": 1,
            "POSITION": 0,
            "TANGENT": 2,
            "TEXCOORD_0": 3
          },
          "indices": 4,
          "material": 1,
          "mode": 4
        }
      ]
    },
    {
      "primitives": [
        {
          "attributes": {
            "NORMAL": 6,
            "POSITION": 5,
            "TANGENT": 7,
            "TEXCOORD_0": 8
          },
          "indices": 9,
          "material": 3,
          "mode": 4
        }
      ]
    },
    {
      "primitives": [
        {
          "attributes": {
            "NORMAL": 11,
            "POSITION": 10,
            "TANGENT": 12,
            "TEXCOORD_0": 13
          },
          "indices": 14,
          "material": 0,
          "mode": 4
        }
      ]
    },
    {
      "primitives": [
        {
          "attributes": {
            "NORMAL": 16,
            "POSITION": 15,
            "TANGENT": 17,
            "TEXCOORD_0": 18
          },
          "indices": 19,
          "material": 2,
          "mode": 4
        }
      ]
    },
    {
      "primitives": [
        {
          "attributes": {
            "NORMAL": 21,
            "POSITION": 20,
            "TANGENT": 22,
            "TEXCOORD_0": 23
          },
          "indices": 24,
          "material": 4,
          "mode": 4
        }
      ]
    },
    {
      "primitives": [
        {
          "attributes": {
            "NORMAL": 26,
            "POSITION": 25,
            "TANGENT": 27,
            "TEXCOORD_0": 28
          },
          "indices": 29,
          "material": 4,
          "mode": 4
        }
      ]
    }
  ],
  "nodes": [
    {
      "children": [
        1
      ],
      "name": "RootNode (gltf orientation matrix)",
      "rotation": [
        -0.70710678118654746,
        -0,
        -0,
        0.70710678118654757
      ]
    },
    {
      "children": [
        2
      ],
      "matrix": [
        0.013130942359566689,
        -0.47116479277610779,
        -0.88194745779037476,
        0,
        -0.033844098448753357,
        0.88130867481231689,
        -0.47132742404937744,
        0,
        0.99934083223342896,
        0.036037687212228775,
        -0.0043737334199249744,
        0,
        2.2917113304138184,
        0.58010154962539673,
        1.4119986295700073,
        1
      ],
      "name": "RootNode (model correction matrix)"
    },
    {
      "children": [
        3,
        4,
        5,
        6,
        7,
        8
      ],
      "name": "My Gravity Sketch.obj.cleaner.gles"
    },
    {
      "mesh": 0,
      "name": ""
    },
    {
      "mesh": 1,
      "name": ""
    },
    {
      "mesh": 2,
      "name": ""
    },
    {
      "mesh": 3,
      "name": ""
    },
    {
      "mesh": 4,
      "name": ""
    },
    {
      "mesh": 5,
      "name": ""
    }
  ],
  "scene": 0,
  "scenes": [
    {
      "name": "OSG_Scene",
      "nodes": [
        0
      ]
    }
  ]
}

